<svg xmlns="http://www.w3.org/2000/svg" width="294" height="147" viewBox="0 0 294 147" fill="none"><g clip-path="url(#clip0_3_530)"><path d="M105.22 40.92H52.6099V93.53H105.22V40.92Z" fill="#E9E4CE"></path><path d="M92.9199 10.31H64.8999V40.72H92.9199V10.31Z" fill="#E9E4CE"></path><path d="M92.9199 10.31H64.8999L78.9099 0L92.9199 10.31Z" fill="black"></path><path d="M86.4299 26.11H71.3999V40.72H86.4299V26.11Z" fill="black"></path><path d="M78.9099 18.6C74.7599 18.6 71.3999 21.96 71.3999 26.11H86.4299C86.4199 21.96 83.0599 18.6 78.9099 18.6Z" fill="black"></path><path d="M208.92 98.19L205.93 95.22L202.97 98.18L205.93 101.15L208.92 98.19Z" fill="black"></path><path d="M215.53 98.19L212.54 95.22L209.58 98.18L212.54 101.15L215.53 98.19Z" fill="black"></path><path d="M225.807 92.3978L222.519 95.6854L225.806 98.9738L229.095 95.6863L225.807 92.3978Z" fill="black"></path><path d="M238.97 121.98L241.94 124.96L244.89 121.99L241.93 119.03L238.97 121.98Z" fill="black"></path><path d="M274.2 121.98L277.18 124.96L280.13 121.99L277.17 119.03L274.2 121.98Z" fill="black"></path><path d="M243.45 113.92C244.37 112.26 244.83 110.23 244.83 107.84C244.83 106.68 244.6 105.43 244.15 104.11C243.67 102.69 243.06 101.59 242.34 100.81C242.1 100.55 241.86 100.59 241.61 100.93L238.78 104.88C238.57 105.17 238.57 105.43 238.78 105.66C240.59 107.65 241.49 109.02 241.49 109.79C241.49 110.66 240.33 111.1 238 111.1H236.57H235.31H234.07C232.14 111.1 230.79 110.57 230.05 109.52C229.68 108.99 229.37 108.01 229.13 106.58C228.95 105.53 228.57 105 227.99 105C227.39 105 227 105.53 226.8 106.58C226.54 108.01 226.18 108.99 225.71 109.52C224.81 110.57 223.18 111.1 220.82 111.1H219.25H217.97H216.76C214.83 111.1 213.48 110.57 212.74 109.52C212.37 108.99 212.06 108.01 211.82 106.58C211.64 105.53 211.26 105 210.68 105C210.08 105 209.69 105.53 209.49 106.58C209.23 108.01 208.87 108.99 208.4 109.52C207.5 110.57 205.87 111.1 203.51 111.1H201.91V111.07H197.17C193.26 111.07 190.2 112.2 187.97 114.46C186.28 116.17 185.43 117.91 185.43 119.69C185.43 120.85 186.28 121.68 187.97 122.16C188.84 122.42 190.41 122.63 192.66 122.79C194.34 122.92 195.18 123.12 195.18 123.4C195.18 123.96 193.95 124.46 191.5 124.88C189.45 125.23 187.81 125.41 186.58 125.41C182.93 125.41 180.29 125.14 178.66 124.59C176.01 123.7 174.69 121.94 174.69 119.29C174.69 118.47 174.92 117.4 175.38 116.08C175.84 114.77 176.07 114.05 176.07 113.92C176.07 113.24 175.69 112.9 174.93 112.9C174.35 112.9 173.55 114.01 172.53 116.24C171.47 118.57 170.93 120.54 170.93 122.17C170.93 128.16 175.02 131.15 183.2 131.15C187.15 131.15 190.4 130.63 192.93 129.58C196.54 128.08 198.35 125.65 198.35 122.27C198.35 121.27 197.88 120.54 196.95 120.09C196.21 119.74 194.92 119.44 193.1 119.22C192.26 119.14 191.42 119.06 190.58 118.98C189.19 118.77 188.5 118.5 188.5 118.16C188.5 117.6 188.98 117.17 189.93 116.88C190.57 116.68 191.27 116.59 192.01 116.59C192.88 116.59 194.18 116.71 195.92 116.96C197.66 117.21 198.96 117.34 199.83 117.34H200.65H201.91H204.48C207.21 117.34 209.27 116.15 210.68 113.76C211.31 114.83 212.2 115.7 213.35 116.35C214.5 117.01 215.7 117.34 216.94 117.34H217.96H219.24H221.78C224.51 117.34 226.57 116.15 227.98 113.76C228.61 114.83 229.5 115.7 230.65 116.36C231.8 117.02 233 117.35 234.24 117.35H235.28H236.54H237.6C240.25 117.32 242.19 116.19 243.45 113.92Z" fill="black"></path><path d="M248.65 119.03L245.68 121.98L248.66 124.96L251.61 121.99L248.65 119.03Z" fill="black"></path><path d="M288.86 113.35C287.89 113.35 287.05 112.62 286.34 111.15C285.76 109.94 285.47 108.78 285.47 107.66C285.47 106.19 286.02 105.46 287.11 105.46C287.98 105.46 288.8 106.16 289.58 107.54C290.26 108.77 290.6 109.86 290.6 110.83C290.6 112.51 290.02 113.35 288.86 113.35ZM292.1 105.77C290.91 103.58 289.18 102.48 286.92 102.48C285.1 102.48 283.58 103.26 282.37 104.81C281.26 106.25 280.76 107.78 280.89 109.4C280.95 110.1 280.84 110.54 280.55 110.73C280.19 110.97 279.32 111.09 277.93 111.09H275.85V111.16H274.74C273.26 111.16 272.1 110.05 271.28 107.84L267.07 96.59C266.91 96.15 266.77 95.94 266.66 95.94C266.61 95.94 266.48 96.09 266.27 96.38L263.54 99.99C265.8 104.79 266.93 107.73 266.93 108.81C266.93 110.52 264.69 111.38 260.2 111.38C258.36 111.38 257.16 110.98 256.62 110.19C256.35 109.79 256.19 109.05 256.16 107.96C256.14 107.15 255.88 106.75 255.36 106.75C254.44 106.75 253.79 107.78 253.4 109.83C253.27 110.51 253.21 111.13 253.21 111.69C253.21 115.43 255.24 117.3 259.29 117.3C261.97 117.3 264 116.9 265.39 116.09C266.23 115.6 267.32 114.52 268.66 112.83C270.26 115.81 272.21 117.31 274.52 117.31H275.87H277.1H277.95C279.95 117.31 281.47 116.31 282.5 114.31C283.98 116.65 285.83 117.82 288.04 117.82C289.7 117.82 291.04 117.3 292.04 116.26C293.05 115.22 293.55 113.87 293.55 112.21C293.55 109.71 293.07 107.56 292.1 105.77Z" fill="black"></path><path d="M185.14 138.14L188.09 141.11L191.09 138.15L188.1 135.18L185.14 138.14Z" fill="black"></path><path d="M192.14 138.14L195.1 141.11L198.1 138.15L195.1 135.18L192.14 138.14Z" fill="black"></path><path d="M216.42 126.86C215.43 126.86 214.61 127.1 213.96 127.59C213.31 128.08 212.81 128.65 212.46 129.31C211.86 127.68 210.48 126.86 208.34 126.86C207.84 126.86 207.39 126.93 207 127.06C206.6 127.19 206.24 127.37 205.92 127.58C205.6 127.79 205.33 128.03 205.1 128.3C204.87 128.57 204.68 128.83 204.54 129.1C204.52 128.98 204.5 128.82 204.47 128.65C204.44 128.47 204.41 128.29 204.38 128.1C204.34 127.91 204.3 127.74 204.26 127.57C204.22 127.4 204.17 127.27 204.11 127.18C203.86 127.13 203.62 127.09 203.39 127.06C203.16 127.03 202.89 127.02 202.59 127.02C202.29 127.02 202.01 127.03 201.77 127.06C201.52 127.09 201.27 127.13 201.03 127.18V140.93C201.67 141.04 202.3 141.09 202.92 141.09C203.54 141.09 204.17 141.04 204.81 140.93V133.72C204.81 132.98 204.88 132.37 205.02 131.91C205.16 131.45 205.35 131.09 205.59 130.83C205.83 130.58 206.1 130.4 206.4 130.31C206.7 130.22 207 130.18 207.3 130.18C208.03 130.18 208.51 130.44 208.75 130.95C208.99 131.46 209.11 132.2 209.11 133.16V140.93C209.75 141.04 210.38 141.09 211 141.09C211.62 141.09 212.25 141.04 212.89 140.93V133.51C212.89 132.82 212.97 132.26 213.12 131.82C213.27 131.39 213.47 131.05 213.7 130.81C213.94 130.57 214.2 130.41 214.5 130.32C214.79 130.23 215.09 130.19 215.39 130.19C216.12 130.19 216.6 130.45 216.84 130.96C217.08 131.47 217.2 132.21 217.2 133.17V140.94C217.84 141.05 218.47 141.1 219.09 141.1C219.71 141.1 220.34 141.05 220.98 140.94V132.19C220.98 130.36 220.61 129.02 219.88 128.16C219.13 127.29 217.98 126.86 216.42 126.86Z" fill="black"></path><path d="M232.1 137.93C231.8 138.02 231.52 138.08 231.28 138.1C231.03 138.13 230.76 138.14 230.46 138.14C229.96 138.14 229.5 138.07 229.08 137.94C228.66 137.81 228.29 137.59 227.98 137.29C227.67 136.99 227.42 136.59 227.25 136.08C227.07 135.57 226.98 134.96 226.98 134.23C226.98 133.64 227.05 133.08 227.18 132.54C227.31 132 227.52 131.53 227.81 131.13C228.09 130.73 228.45 130.41 228.89 130.17C229.32 129.93 229.83 129.81 230.42 129.81C230.76 129.81 231.04 129.82 231.26 129.85C231.48 129.88 231.77 129.93 232.12 130.02V137.93H232.1ZM233.96 122.33C233.66 122.33 233.35 122.34 233.04 122.36C232.73 122.38 232.41 122.41 232.09 122.47V127.13C231.77 127.04 231.44 126.98 231.09 126.96C230.74 126.93 230.41 126.92 230.09 126.92C229.03 126.92 228.06 127.11 227.19 127.49C226.32 127.87 225.58 128.39 224.97 129.05C224.36 129.71 223.89 130.48 223.56 131.38C223.23 132.28 223.07 133.23 223.07 134.24C223.07 135.52 223.26 136.6 223.64 137.49C224.02 138.38 224.54 139.1 225.2 139.66C225.86 140.22 226.61 140.63 227.47 140.88C228.33 141.14 229.23 141.27 230.17 141.27C231.39 141.27 232.44 141.2 233.29 141.07C234.15 140.94 235 140.75 235.83 140.5V122.48C235.51 122.43 235.19 122.39 234.87 122.37C234.57 122.34 234.26 122.33 233.96 122.33Z" fill="black"></path><path d="M238.68 128.59C238.68 128.82 238.69 129.06 238.72 129.32C238.75 129.58 238.79 129.82 238.84 130.05H240.62V140.93C241.26 141.04 241.87 141.09 242.46 141.09C243.06 141.09 243.68 141.04 244.32 140.93V127.18H238.84C238.73 127.64 238.68 128.11 238.68 128.59Z" fill="black"></path><path d="M256.41 126.86C255.91 126.86 255.46 126.93 255.05 127.06C254.64 127.2 254.27 127.37 253.94 127.58C253.61 127.79 253.33 128.03 253.08 128.3C252.83 128.57 252.62 128.83 252.44 129.1C252.42 128.98 252.4 128.83 252.37 128.65C252.34 128.47 252.31 128.29 252.28 128.11C252.24 127.92 252.2 127.74 252.16 127.58C252.12 127.41 252.07 127.28 252.01 127.19C251.76 127.14 251.52 127.1 251.29 127.07C251.06 127.05 250.79 127.03 250.49 127.03C250.19 127.03 249.91 127.04 249.67 127.07C249.42 127.1 249.17 127.14 248.93 127.19V140.94C249.57 141.05 250.2 141.1 250.82 141.1C251.44 141.1 252.07 141.05 252.71 140.94V133.73C252.71 132.99 252.79 132.39 252.95 131.92C253.11 131.46 253.32 131.1 253.57 130.84C253.83 130.58 254.12 130.41 254.44 130.32C254.76 130.23 255.07 130.19 255.37 130.19C256.1 130.19 256.61 130.45 256.9 130.96C257.19 131.48 257.34 132.21 257.34 133.17V140.94C257.98 141.05 258.61 141.1 259.23 141.1C259.85 141.1 260.48 141.05 261.12 140.94V132.16C261.12 130.34 260.72 129 259.94 128.14C259.14 127.29 257.97 126.86 256.41 126.86Z" fill="black"></path><path d="M272.04 137.9C271.84 137.94 271.62 137.98 271.36 138.02C271.1 138.06 270.84 138.09 270.58 138.09C270.24 138.09 269.95 138.05 269.7 137.98C269.45 137.91 269.24 137.78 269.08 137.58C268.91 137.38 268.78 137.12 268.69 136.78C268.6 136.44 268.56 136 268.56 135.45V130.05H271.78C271.83 129.77 271.87 129.51 271.89 129.28C271.91 129.05 271.92 128.81 271.92 128.56C271.92 128.33 271.91 128.11 271.89 127.9C271.87 127.69 271.84 127.45 271.78 127.18H268.56V123.16H267.95L262.97 129.52L263.1 130.05H264.83V136.27C264.83 137.97 265.26 139.2 266.11 139.95C266.96 140.7 268.19 141.08 269.81 141.08C270.68 141.08 271.52 140.98 272.34 140.79C272.36 140.66 272.37 140.54 272.38 140.4C272.39 140.27 272.39 140.1 272.39 139.91C272.39 139.63 272.36 139.3 272.31 138.94C272.26 138.59 272.17 138.24 272.04 137.9Z" fill="black"></path><path d="M274.34 128.59C274.34 128.82 274.35 129.06 274.38 129.32C274.41 129.58 274.45 129.82 274.5 130.05H276.28V140.93C276.92 141.04 277.53 141.09 278.11 141.09C278.71 141.09 279.33 141.04 279.97 140.93V127.18H274.49C274.4 127.64 274.34 128.11 274.34 128.59Z" fill="black"></path><path d="M131.52 84.74C141.2 84.74 149.04 76.9 149.04 67.22H113.99C113.99 76.9 121.84 84.74 131.52 84.74ZM131.52 49.7C121.84 49.7 114 57.55 114 67.22H149.05C149.04 57.54 141.19 49.7 131.52 49.7Z" fill="#FFC13B"></path><path d="M78.9099 67.22C64.3799 67.22 52.6099 79 52.6099 93.52H105.22C105.21 79 93.4399 67.22 78.9099 67.22Z" fill="black"></path><path d="M131.52 93.59C116.99 93.59 105.22 105.37 105.22 119.89H157.83C157.82 105.36 146.05 93.59 131.52 93.59Z" fill="#068067"></path><path d="M0 93.59L52.61 146.19H0V93.59Z" fill="black"></path><path d="M105.21 146.19L52.6099 93.59H105.21V146.19Z" fill="#E9E4CE"></path><path d="M52.6099 93.59L105.21 146.19H52.6099" fill="black"></path><path d="M157.82 119.89H105.21V146.19H157.82V119.89Z" fill="#E9E4CE"></path><mask id="mask0_3_530" style="mask-type:luminance" maskUnits="userSpaceOnUse" x="0" y="67" width="53" height="27"><path d="M52.61 67.2H0V93.54H52.61V67.2Z" fill="white"></path></mask><g mask="url(#mask0_3_530)"><mask id="mask1_3_530" style="mask-type:luminance" maskUnits="userSpaceOnUse" x="0" y="66" width="53" height="28"><path d="M52.94 66.77H0V93.84H52.94V66.77Z" fill="white"></path></mask><g mask="url(#mask1_3_530)"><path d="M8.23006 90.92C8.37006 89.91 8.60006 88.9 8.92006 87.93L1.25006 85.47V85.49L1.24006 85.5V85.51V85.52V85.53V85.54V85.55L1.20006 85.61V85.63V85.64V85.65V85.67L1.19006 85.71V85.73V85.75V85.76L1.17006 85.82V85.83V85.85V85.87L1.15006 85.93V85.95L1.14006 85.97L1.12006 86.03L1.11006 86.05V86.07L1.10006 86.08L1.08006 86.14L1.07006 86.16V86.18L1.05006 86.26V86.28C0.730059 87.41 0.480059 88.58 0.310059 89.76L8.23006 90.92ZM10.0901 85.11C10.5601 84.2 11.1101 83.33 11.7301 82.51L5.30006 77.65C4.99006 78.05 4.70006 78.47 4.42006 78.89V78.9L4.41006 78.91L4.40006 78.93L4.36006 78.99L4.35006 79L4.34006 79.01L4.33006 79.02L4.32006 79.03L4.28006 79.1L4.27006 79.11L4.26006 79.12L4.25006 79.13L4.24006 79.14L4.23006 79.15L4.20006 79.19V79.23V79.24L4.19006 79.25V79.26V79.27L4.18006 79.28V79.29L4.17006 79.3L4.15006 79.32L4.14006 79.33V79.34V79.35V79.36L4.13006 79.37V79.38V79.39V79.4V79.41L4.09006 79.4V79.41L4.08006 79.42V79.43L4.07006 79.44V79.45L4.06006 79.46L4.05006 79.47V79.48L4.04006 79.49V79.5H4.03006V79.51L4.02006 79.52L4.00006 79.54L3.99006 79.55L3.98006 79.56V79.57L3.97006 79.58L3.96006 79.59L3.95006 79.6L3.93006 79.63L3.92006 79.64L3.90006 79.71L3.89006 79.72L3.88006 79.73L3.87006 79.74L3.85006 79.77L3.84006 79.78L3.83006 79.79L3.82006 79.8V79.81L3.81006 79.82L3.78006 79.87L3.77006 79.88L3.76006 79.9L3.75006 79.91L3.74006 79.92L3.70006 79.99L3.69006 80.01L3.68006 80.02L3.66006 80.1L3.62006 80.17L3.61006 80.19L3.60006 80.2L3.55006 80.28L3.54006 80.3L3.53006 80.32L3.49006 80.39L3.48006 80.41L3.47006 80.43L3.46006 80.45L3.41006 80.53L3.40006 80.54L3.33006 80.66C3.20006 80.9 3.06006 81.14 2.94006 81.39L10.0901 85.11ZM13.7901 80.22C14.5301 79.52 15.3501 78.88 16.2001 78.31L11.7301 71.6C11.1701 71.97 10.6401 72.36 10.1201 72.77L10.1101 72.78L10.1001 72.79L10.0301 72.84L10.0201 72.85L10.0101 72.86L10.0001 72.87L9.99006 72.88L9.95006 72.9L9.93006 72.92L9.92006 72.93H9.91006L9.90006 72.94L9.89006 72.95H9.88006L9.87006 72.96H9.86006L9.85006 72.97L9.84006 72.98H9.83006H9.82006L9.81006 73H9.80006V73.02H9.79006L9.78006 73.03L9.77006 73.04H9.76006L9.75006 73.05L9.74006 73.06L9.71006 73.08L9.70006 73.09L9.69006 73.1L9.68006 73.11L9.67006 73.12L9.66006 73.13L9.61006 73.17L9.57006 73.2L9.56006 73.21L9.55006 73.22C9.11006 73.58 8.69006 73.96 8.28006 74.34L13.7901 80.22ZM18.8801 76.83C19.8101 76.41 20.7801 76.08 21.7701 75.83L19.7801 68.02H19.7601H19.7401H19.7201H19.7001C18.2801 68.38 16.9101 68.87 15.6001 69.45L18.8801 76.83ZM27.8901 75.33L28.5801 67.31L28.3901 67.29H28.3801H28.3701H28.3601H28.3501H28.3401H28.3301H28.3201H28.3101H28.3001H28.2901H28.2701H28.2601H28.2401H28.2201H28.2001C27.6401 67.25 27.0801 67.23 26.5101 67.22H26.4901H26.4701H26.4501H26.4301H26.4001C26.3501 67.22 26.3101 67.22 26.2601 67.22H26.2401H26.2201H26.2001H26.1801H26.1701H26.1501H26.1401H26.1201H26.1101H26.1001H26.0901H26.0801H26.0601H26.0501H26.0301H26.0101H25.9601H25.9401H25.9301H25.9201H25.9101H25.9001H25.8901H25.8801H25.8701H25.8601H25.8501H25.8401H25.8301H25.8201H25.8001H25.7901H25.7801H25.7701H25.7601H25.7501H25.7401H25.7301H25.7201H25.7001H25.6801H25.6701H25.6501H25.6401H25.6301H25.6201H25.6001H25.5901H25.5801H25.5701H25.5501H25.5401H25.5201H25.5001H25.4901H25.4801H25.4701H25.4601H25.4501H25.4401H25.4301H25.4201H25.4001H25.3901H25.3801H25.3701H25.3201H25.3101H25.2901H25.2801H25.2701H25.2601H25.2401H25.2301H25.2101H25.2001H25.1201H25.1001H25.0801H25.0601L24.9301 67.23H24.9101L24.7601 67.24H24.7401H24.7201L24.6001 67.25H24.5801H24.5601H24.5501H24.5301H24.5201H24.5101H24.5001H24.4701H24.4601H24.4501H24.4401H24.4301H24.4201H24.4101H24.4001H24.3901H24.3701H24.3501L24.1601 67.26L24.8101 75.29C25.1601 75.26 25.5201 75.25 25.8801 75.24C26.5501 75.25 27.2201 75.27 27.8901 75.33ZM33.7901 76.87L37.1101 69.53C35.7701 68.93 34.3801 68.43 32.9401 68.06L30.9101 75.85C31.8901 76.1 32.8601 76.45 33.7901 76.87ZM38.8701 80.29L44.4301 74.46C43.7901 73.85 43.1101 73.27 42.4101 72.72L42.3301 72.66L42.3201 72.65L42.3101 72.64L42.3001 72.63L42.2901 72.62L42.2601 72.59H42.2501H42.2401L42.2301 72.58H42.2201L42.2101 72.57H42.2001L42.1901 72.56H42.1801L42.1701 72.55H42.1601L42.1501 72.54L42.1201 72.52L42.1101 72.51L42.1001 72.5L42.0901 72.49L42.0801 72.48C41.7301 72.21 41.3701 71.96 41.0001 71.71L36.5001 78.39C37.3201 78.93 38.1301 79.58 38.8701 80.29ZM42.5401 85.19L49.7101 81.51C49.4801 81.07 49.2401 80.63 48.9901 80.2L48.9801 80.18L48.9701 80.16L48.9301 80.09L48.9201 80.08L48.9101 80.07L48.9001 80.06L48.8901 80.05L48.8701 80L48.8601 79.99L48.8501 79.98L48.8401 79.97L48.8301 79.96V79.95L48.8201 79.94V79.93L48.8101 79.92L48.8001 79.91V79.9L48.7901 79.89L48.7801 79.88V79.87V79.86V79.85L48.7701 79.84V79.83L48.7601 79.82V79.81V79.8L48.7501 79.79V79.78V79.77V79.76L48.7401 79.75V79.74L48.7301 79.73V79.72V79.71L48.7201 79.7L48.6901 79.66L48.6801 79.65L48.6701 79.64L48.6601 79.63L48.6501 79.62V79.61L48.6401 79.6L48.6101 79.56L48.6001 79.55L48.5901 79.54L48.5801 79.53L48.5701 79.52L48.5401 79.46L48.5301 79.45L48.5201 79.44L48.5101 79.43L48.5001 79.42L48.4601 79.36L48.4501 79.35L48.4401 79.34L48.4301 79.33L48.4201 79.32L48.3801 79.27L48.3701 79.26L48.3601 79.25L48.3501 79.24L48.3401 79.23L48.3101 79.17L48.3001 79.16L48.2901 79.15L48.2801 79.14L48.2401 79L48.2101 78.96L48.2001 78.95V78.94L48.1901 78.93L48.1801 78.92V78.91V78.9V78.89L48.1701 78.88L48.1501 78.85V78.84L48.1401 78.83V78.82V78.81V78.8H48.1001V78.79L48.0901 78.78V78.77L48.0801 78.76L48.0701 78.75L48.0601 78.74L48.0501 78.73L48.0401 78.72L48.0301 78.71L48.0001 78.66L47.9901 78.64L47.9801 78.62L47.9701 78.6L47.9601 78.58C47.7701 78.31 47.5801 78.04 47.3801 77.78L40.9301 82.61C41.5301 83.41 42.0801 84.28 42.5401 85.19ZM44.3701 91.01L52.3501 89.92L52.3401 89.87V89.86L52.3301 89.78V89.77V89.76L52.3201 89.69V89.68V89.67V89.66V89.65L52.3101 89.6V89.59V89.58V89.57V89.56V89.55V89.54V89.53V89.51V89.5V89.49V89.48V89.47V89.46V89.45V89.44V89.43V89.41V89.39V89.38V89.37V89.36V89.35V89.34V89.32L52.3001 89.28V89.27V89.26V89.25V89.24V89.22L52.2901 89.18V89.16V89.14V89.12L52.2801 89.06V89.04V89.02C52.1201 88.07 51.9001 87.14 51.6401 86.23L51.6201 86.15V86.13L51.6101 86.11V86.09L51.5101 86V85.98V85.97V85.96V85.95V85.93V85.92V85.91V85.9V85.89V85.88V85.87V85.86V85.85V85.84L51.5001 85.81V85.8V85.79V85.78V85.77L51.4801 85.71V85.69V85.68L51.4701 85.65L43.7901 88.07C44.0101 89 44.2401 90 44.3701 91.01Z" fill="black"></path></g></g><path d="M52.61 146.19L0 93.59H52.61" fill="#E9E4CE"></path></g><defs><clipPath id="clip0_3_530"><rect width="293.55" height="146.19" fill="white"></rect></clipPath></defs></svg>